<?xml version="1.0" encoding="UTF-8" standalone="no"?>
<svg viewBox="0 0 614 512" xmlns="http://www.w3.org/2000/svg" xml:space="preserve" fill-rule="evenodd" clip-rule="evenodd" stroke-linejoin="round" stroke-miterlimit="2">
<path d="M441.395 505.856H214.9l45.299-97.042h181.196v-.001c36.083-.051 62.399-18.135 62.113-58.278-.31-43.536-26.032-58.238-62.113-58.28H365.03l41.565-91.954h34.774l.026-.003v-.004c.022 0 .02.002 0 .004v.003h-.026c-.391.041-3.266.218.928 0 29.296-1.523 53.153-22.382 53.153-49.951 0-27.568-18.213-48.273-54.055-49.122-.517-.012-38.528-.005-38.828 0L341.09 4.215l-.044-.067h107.409c85.719 0 153.054 63.391 151.784 133.534-1.008 55.689-30.59 90.988-75.876 108.166 49.649 16.718 80.951 54.451 84.403 105.527 5.279 78.102-55.369 145.896-146.564 153.731-7.011.603-13.957.834-20.807.712v.038Z" fill="url(#a)"/>
<path d="M379.924 101.203 191.809 505.856 4.03 101.223h106.258l81.521 175.664L318.343 4.148l61.581 97.055Zm-375.881 0-.013.02h106.223l-.01-.02H4.043Z" fill="url(#b)"/><defs>
<linearGradient id="a" x1="0" y1="0" x2="1" y2="0" gradientUnits="userSpaceOnUse" gradientTransform="matrix(-48.5345 -437.095 436.811 -48.5662 373.446 502.709)"><stop offset="0" stop-color="#075985"/><stop offset="1" stop-color="#38bdf8"/>
</linearGradient>
<linearGradient id="b" x1="0" y1="0" x2="1" y2="0" gradientUnits="userSpaceOnUse" gradientTransform="matrix(.47098 581.3 -775.866 .62862 4.03 -74.836)"><stop offset="0" stop-color="#f1f5f9"/><stop offset="1" stop-color="#64748b"/>
</linearGradient></defs></svg>